<mxfile host="Electron" modified="2023-11-06T17:27:25.312Z" agent="Mozilla/5.0 (Windows NT 10.0; Win64; x64) AppleWebKit/537.36 (KHTML, like Gecko) draw.io/22.0.2 Chrome/114.0.5735.289 Electron/25.8.4 Safari/537.36" etag="IlCQPIx9VJ4pxv75Fjdz" version="22.0.2" type="device">
  <diagram name="Page-1" id="LwjQtrCL4rjXIuyEKjrp">
    <mxGraphModel dx="2019" dy="1113" grid="1" gridSize="10" guides="1" tooltips="1" connect="1" arrows="1" fold="1" page="0" pageScale="1" pageWidth="850" pageHeight="1100" math="0" shadow="0">
      <root>
        <mxCell id="0" />
        <mxCell id="1" parent="0" />
        <mxCell id="GXSWCgGSq7viN7u0XBdJ-3" value="Visual Studio Code" style="swimlane;whiteSpace=wrap;html=1;fontSize=16;" parent="1" vertex="1">
          <mxGeometry x="-633" y="-76" width="322" height="456" as="geometry" />
        </mxCell>
        <mxCell id="GXSWCgGSq7viN7u0XBdJ-13" value="Startup" style="rounded=0;whiteSpace=wrap;html=1;fontSize=16;" parent="GXSWCgGSq7viN7u0XBdJ-3" vertex="1">
          <mxGeometry x="60" y="45" width="202" height="205" as="geometry" />
        </mxCell>
        <mxCell id="GXSWCgGSq7viN7u0XBdJ-31" value="Editor" style="rounded=0;whiteSpace=wrap;html=1;fontSize=16;" parent="GXSWCgGSq7viN7u0XBdJ-3" vertex="1">
          <mxGeometry x="59.75" y="273.2" width="202" height="42" as="geometry" />
        </mxCell>
        <mxCell id="GXSWCgGSq7viN7u0XBdJ-32" value="MenÃ¼ / Command" style="rounded=0;whiteSpace=wrap;html=1;fontSize=16;" parent="GXSWCgGSq7viN7u0XBdJ-3" vertex="1">
          <mxGeometry x="59.75" y="326.2" width="202" height="42" as="geometry" />
        </mxCell>
        <mxCell id="GXSWCgGSq7viN7u0XBdJ-4" value="Plugin" style="swimlane;whiteSpace=wrap;html=1;fontSize=16;" parent="1" vertex="1">
          <mxGeometry x="-218" y="-76" width="307" height="456" as="geometry" />
        </mxCell>
        <mxCell id="GXSWCgGSq7viN7u0XBdJ-6" value="Extension Manifest" style="rounded=0;whiteSpace=wrap;html=1;fontSize=16;" parent="GXSWCgGSq7viN7u0XBdJ-4" vertex="1">
          <mxGeometry x="52.5" y="45" width="202" height="60" as="geometry" />
        </mxCell>
        <mxCell id="GXSWCgGSq7viN7u0XBdJ-8" value="Logik" style="swimlane;whiteSpace=wrap;html=1;fontSize=16;" parent="GXSWCgGSq7viN7u0XBdJ-4" vertex="1">
          <mxGeometry x="52.5" y="144" width="202.5" height="295" as="geometry" />
        </mxCell>
        <mxCell id="GXSWCgGSq7viN7u0XBdJ-9" value="extension.ts" style="rounded=0;whiteSpace=wrap;html=1;fontSize=16;" parent="GXSWCgGSq7viN7u0XBdJ-8" vertex="1">
          <mxGeometry x="21" y="43" width="160" height="47" as="geometry" />
        </mxCell>
        <mxCell id="GXSWCgGSq7viN7u0XBdJ-10" value="Event Handler" style="rounded=0;whiteSpace=wrap;html=1;fontSize=16;" parent="GXSWCgGSq7viN7u0XBdJ-8" vertex="1">
          <mxGeometry x="20.75" y="129.2" width="160" height="41.5" as="geometry" />
        </mxCell>
        <mxCell id="GXSWCgGSq7viN7u0XBdJ-11" value="Event Handler" style="rounded=0;whiteSpace=wrap;html=1;fontSize=16;" parent="GXSWCgGSq7viN7u0XBdJ-8" vertex="1">
          <mxGeometry x="21" y="182.2" width="160" height="43.5" as="geometry" />
        </mxCell>
        <mxCell id="GXSWCgGSq7viN7u0XBdJ-14" value="" style="endArrow=classic;html=1;rounded=0;fontSize=12;startSize=8;endSize=8;exitX=1;exitY=0.25;exitDx=0;exitDy=0;entryX=0;entryY=0.25;entryDx=0;entryDy=0;edgeStyle=orthogonalEdgeStyle;" parent="1" source="GXSWCgGSq7viN7u0XBdJ-13" target="GXSWCgGSq7viN7u0XBdJ-6" edge="1">
          <mxGeometry width="50" height="50" relative="1" as="geometry">
            <mxPoint x="-310" y="36" as="sourcePoint" />
            <mxPoint x="-260" y="-14" as="targetPoint" />
            <Array as="points">
              <mxPoint x="-371" y="-16" />
            </Array>
          </mxGeometry>
        </mxCell>
        <mxCell id="GXSWCgGSq7viN7u0XBdJ-23" value="Liest" style="edgeLabel;html=1;align=center;verticalAlign=middle;resizable=0;points=[];fontSize=16;" parent="GXSWCgGSq7viN7u0XBdJ-14" vertex="1" connectable="0">
          <mxGeometry x="-0.013" y="5" relative="1" as="geometry">
            <mxPoint x="16" y="-12" as="offset" />
          </mxGeometry>
        </mxCell>
        <mxCell id="GXSWCgGSq7viN7u0XBdJ-18" value="" style="endArrow=classic;html=1;rounded=0;fontSize=12;startSize=8;endSize=8;exitX=1;exitY=0.75;exitDx=0;exitDy=0;entryX=0;entryY=0.25;entryDx=0;entryDy=0;edgeStyle=orthogonalEdgeStyle;" parent="1" source="GXSWCgGSq7viN7u0XBdJ-13" target="GXSWCgGSq7viN7u0XBdJ-9" edge="1">
          <mxGeometry width="50" height="50" relative="1" as="geometry">
            <mxPoint x="-310" y="36" as="sourcePoint" />
            <mxPoint x="-260" y="-14" as="targetPoint" />
            <Array as="points">
              <mxPoint x="-371" y="123" />
            </Array>
          </mxGeometry>
        </mxCell>
        <mxCell id="GXSWCgGSq7viN7u0XBdJ-19" value="Aktiviert" style="edgeLabel;html=1;align=center;verticalAlign=middle;resizable=0;points=[];fontSize=16;" parent="GXSWCgGSq7viN7u0XBdJ-18" vertex="1" connectable="0">
          <mxGeometry x="0.2605" y="-3" relative="1" as="geometry">
            <mxPoint x="-41" y="-18" as="offset" />
          </mxGeometry>
        </mxCell>
        <mxCell id="GXSWCgGSq7viN7u0XBdJ-21" style="edgeStyle=orthogonalEdgeStyle;rounded=0;orthogonalLoop=1;jettySize=auto;html=1;exitX=0;exitY=0.75;exitDx=0;exitDy=0;fontSize=12;startSize=8;endSize=8;" parent="1" source="GXSWCgGSq7viN7u0XBdJ-9" target="GXSWCgGSq7viN7u0XBdJ-13" edge="1">
          <mxGeometry relative="1" as="geometry">
            <Array as="points">
              <mxPoint x="-266" y="146" />
              <mxPoint x="-266" y="146" />
            </Array>
          </mxGeometry>
        </mxCell>
        <mxCell id="GXSWCgGSq7viN7u0XBdJ-22" value="Registriert&lt;br&gt;Events" style="edgeLabel;html=1;align=center;verticalAlign=middle;resizable=0;points=[];fontSize=16;" parent="GXSWCgGSq7viN7u0XBdJ-21" vertex="1" connectable="0">
          <mxGeometry x="-0.324" y="-1" relative="1" as="geometry">
            <mxPoint x="-49" y="25" as="offset" />
          </mxGeometry>
        </mxCell>
        <mxCell id="GXSWCgGSq7viN7u0XBdJ-24" value="" style="endArrow=classic;html=1;rounded=0;fontSize=12;startSize=8;endSize=8;exitX=0;exitY=0.75;exitDx=0;exitDy=0;edgeStyle=orthogonalEdgeStyle;" parent="1" source="GXSWCgGSq7viN7u0XBdJ-6" target="GXSWCgGSq7viN7u0XBdJ-13" edge="1">
          <mxGeometry width="50" height="50" relative="1" as="geometry">
            <mxPoint x="-310" y="36" as="sourcePoint" />
            <mxPoint x="-260" y="-14" as="targetPoint" />
            <Array as="points">
              <mxPoint x="-321" y="14" />
              <mxPoint x="-321" y="14" />
            </Array>
          </mxGeometry>
        </mxCell>
        <mxCell id="GXSWCgGSq7viN7u0XBdJ-25" value="Definiert&lt;br&gt;Contribution Points" style="edgeLabel;html=1;align=center;verticalAlign=middle;resizable=0;points=[];fontSize=16;" parent="GXSWCgGSq7viN7u0XBdJ-24" vertex="1" connectable="0">
          <mxGeometry x="-0.3214" y="5" relative="1" as="geometry">
            <mxPoint x="-38" y="19" as="offset" />
          </mxGeometry>
        </mxCell>
        <mxCell id="GXSWCgGSq7viN7u0XBdJ-30" value="" style="endArrow=none;dashed=1;html=1;dashPattern=1 1;strokeWidth=7;rounded=0;fontSize=12;startSize=8;endSize=8;curved=1;" parent="1" edge="1">
          <mxGeometry width="50" height="50" relative="1" as="geometry">
            <mxPoint x="-66.25" y="346.7" as="sourcePoint" />
            <mxPoint x="-66.25" y="307.7" as="targetPoint" />
          </mxGeometry>
        </mxCell>
        <mxCell id="GXSWCgGSq7viN7u0XBdJ-33" value="" style="endArrow=none;dashed=1;html=1;dashPattern=1 1;strokeWidth=7;rounded=0;fontSize=12;startSize=8;endSize=8;curved=1;" parent="1" edge="1">
          <mxGeometry width="50" height="50" relative="1" as="geometry">
            <mxPoint x="-471.25" y="349.7" as="sourcePoint" />
            <mxPoint x="-471.25" y="311.7" as="targetPoint" />
          </mxGeometry>
        </mxCell>
        <mxCell id="GXSWCgGSq7viN7u0XBdJ-34" style="edgeStyle=orthogonalEdgeStyle;rounded=0;orthogonalLoop=1;jettySize=auto;html=1;entryX=0;entryY=0.5;entryDx=0;entryDy=0;fontSize=12;startSize=8;endSize=8;" parent="1" source="GXSWCgGSq7viN7u0XBdJ-31" target="GXSWCgGSq7viN7u0XBdJ-10" edge="1">
          <mxGeometry relative="1" as="geometry" />
        </mxCell>
        <mxCell id="GXSWCgGSq7viN7u0XBdJ-36" value="Ruft auf" style="edgeLabel;html=1;align=center;verticalAlign=middle;resizable=0;points=[];fontSize=16;" parent="GXSWCgGSq7viN7u0XBdJ-34" vertex="1" connectable="0">
          <mxGeometry x="-0.0046" relative="1" as="geometry">
            <mxPoint x="-13" y="14" as="offset" />
          </mxGeometry>
        </mxCell>
        <mxCell id="GXSWCgGSq7viN7u0XBdJ-35" style="edgeStyle=orthogonalEdgeStyle;rounded=0;orthogonalLoop=1;jettySize=auto;html=1;entryX=0;entryY=0.5;entryDx=0;entryDy=0;fontSize=12;startSize=8;endSize=8;" parent="1" source="GXSWCgGSq7viN7u0XBdJ-32" target="GXSWCgGSq7viN7u0XBdJ-11" edge="1">
          <mxGeometry relative="1" as="geometry" />
        </mxCell>
        <mxCell id="GXSWCgGSq7viN7u0XBdJ-37" value="Ruft auf" style="edgeLabel;html=1;align=center;verticalAlign=middle;resizable=0;points=[];fontSize=16;" parent="1" vertex="1" connectable="0">
          <mxGeometry x="-269.0044100431494" y="288.00194262915153" as="geometry" />
        </mxCell>
      </root>
    </mxGraphModel>
  </diagram>
</mxfile>
